<svg width="38" height="39" viewBox="0 0 38 39" fill="none" xmlns="http://www.w3.org/2000/svg">
<path d="M30.0837 14.7513C30.0837 13.2958 29.797 11.8546 29.24 10.5099C28.683 9.1652 27.8666 7.94338 26.8374 6.9142C25.8082 5.88502 24.5864 5.06863 23.2417 4.51164C21.897 3.95465 20.4558 3.66797 19.0003 3.66797C17.5448 3.66797 16.1036 3.95465 14.7589 4.51164C13.4142 5.06863 12.1924 5.88502 11.1632 6.9142C10.134 7.94338 9.31765 9.1652 8.76066 10.5099C8.20367 11.8546 7.91699 13.2958 7.91699 14.7513C7.91699 16.9474 8.56458 18.9899 9.66658 20.7126H9.65391L19.0003 35.3346L28.3467 20.7126H28.3357C29.4771 18.9338 30.0838 16.8648 30.0837 14.7513ZM19.0003 19.5013C17.7405 19.5013 16.5324 19.0009 15.6416 18.1101C14.7508 17.2193 14.2503 16.0111 14.2503 14.7513C14.2503 13.4915 14.7508 12.2833 15.6416 11.3925C16.5324 10.5017 17.7405 10.0013 19.0003 10.0013C20.2601 10.0013 21.4683 10.5017 22.3591 11.3925C23.2499 12.2833 23.7503 13.4915 23.7503 14.7513C23.7503 16.0111 23.2499 17.2193 22.3591 18.1101C21.4683 19.0009 20.2601 19.5013 19.0003 19.5013Z" fill="white"/>
</svg>
