<svg width="80" height="80" viewBox="0 0 80 80" fill="none" xmlns="http://www.w3.org/2000/svg">
<g clip-path="url(#clip0_89_104)">
<mask id="path-1-inside-1_89_104" fill="white">
<path d="M0 0H64C72.8366 0 80 7.16344 80 16V64C80 72.8366 72.8366 80 64 80H0V0Z"/>
</mask>
<path d="M34.9999 6.66406C40.3197 6.66371 45.5323 8.16108 50.0409 10.9848C54.5495 13.8086 58.172 17.8446 60.4939 22.631C62.8159 27.4175 63.7433 32.7609 63.1702 38.0498C62.5971 43.3387 60.5465 48.3595 57.2532 52.5374L69.4265 64.7107C70.0337 65.3394 70.3697 66.1814 70.3621 67.0554C70.3545 67.9294 70.004 68.7654 69.3859 69.3835C68.7679 70.0015 67.9319 70.352 67.0579 70.3596C66.1839 70.3672 65.3419 70.0312 64.7132 69.4241L52.5399 57.2507C48.9914 60.0473 44.8255 61.9547 40.3899 62.8138C35.9543 63.6729 31.3776 63.4588 27.0416 62.1894C22.7056 60.92 18.736 58.632 15.464 55.5165C12.192 52.4009 9.71256 48.548 8.23246 44.2793C6.75237 40.0106 6.31456 35.4499 6.95556 30.9775C7.59657 26.5052 9.2978 22.251 11.9173 18.5699C14.5368 14.8888 17.9987 11.8875 22.0141 9.81638C26.0294 7.74528 30.4818 6.66445 34.9999 6.66406ZM34.9999 13.3307C29.2535 13.3307 23.7425 15.6135 19.6792 19.6767C15.6159 23.74 13.3332 29.251 13.3332 34.9974C13.3332 40.7438 15.6159 46.2548 19.6792 50.318C23.7425 54.3813 29.2535 56.6641 34.9999 56.6641C40.7462 56.6641 46.2572 54.3813 50.3205 50.318C54.3838 46.2548 56.6665 40.7438 56.6665 34.9974C56.6665 29.251 54.3838 23.74 50.3205 19.6767C46.2572 15.6135 40.7462 13.3307 34.9999 13.3307ZM34.9999 16.6641C39.8622 16.6641 44.5253 18.5956 47.9635 22.0338C51.4017 25.4719 53.3332 30.1351 53.3332 34.9974C53.3332 39.8597 51.4017 44.5229 47.9635 47.961C44.5253 51.3992 39.8622 53.3307 34.9999 53.3307C30.1376 53.3307 25.4744 51.3992 22.0362 47.961C18.5981 44.5229 16.6665 39.8597 16.6665 34.9974C16.6665 30.1351 18.5981 25.4719 22.0362 22.0338C25.4744 18.5956 30.1376 16.6641 34.9999 16.6641Z" fill="#EF842D"/>
</g>
<path d="M0 -2H64C73.9411 -2 82 6.05887 82 16H78C78 8.26801 71.732 2 64 2H0V-2ZM82 64C82 73.9411 73.9411 82 64 82H0V78H64C71.732 78 78 71.732 78 64H82ZM0 80V0V80ZM64 -2C73.9411 -2 82 6.05887 82 16V64C82 73.9411 73.9411 82 64 82V78C71.732 78 78 71.732 78 64V16C78 8.26801 71.732 2 64 2V-2Z" fill="#EF842D" fill-opacity="0.25" mask="url(#path-1-inside-1_89_104)"/>
<defs>
<clipPath id="clip0_89_104">
<path d="M0 0H64C72.8366 0 80 7.16344 80 16V64C80 72.8366 72.8366 80 64 80H0V0Z" fill="white"/>
</clipPath>
</defs>
</svg>
