<svg width="39" height="39" viewBox="0 0 39 39" fill="none" xmlns="http://www.w3.org/2000/svg">
<g clip-path="url(#clip0_89_123)">
<path fill-rule="evenodd" clip-rule="evenodd" d="M21.223 26.0981C20.7659 26.5546 20.1464 26.811 19.5004 26.811C18.8545 26.811 18.235 26.5546 17.7779 26.0981L8.5837 16.9071C8.12665 16.4498 7.86996 15.8297 7.87012 15.1832C7.87027 14.5367 8.12724 13.9167 8.58451 13.4597C9.04178 13.0026 9.66188 12.7459 10.3084 12.7461C10.9549 12.7462 11.5749 13.0032 12.0319 13.4605L19.5004 20.929L26.969 13.4605C27.4285 13.0163 28.0441 12.7703 28.6832 12.7755C29.3223 12.7808 29.9338 13.0368 30.3859 13.4886C30.8381 13.9403 31.0947 14.5515 31.1005 15.1906C31.1064 15.8297 30.861 16.4456 30.4172 16.9055L21.2246 26.0997L21.223 26.0981Z" fill="#EF842D"/>
</g>
<defs>
<clipPath id="clip0_89_123">
<rect width="39" height="39" fill="white"/>
</clipPath>
</defs>
</svg>
