<svg width="39" height="38" viewBox="0 0 39 38" fill="none" xmlns="http://www.w3.org/2000/svg">
<g clip-path="url(#clip0_97_507)">
<path d="M19.0488 0C24.0879 0 28.9207 2.00178 32.4839 5.56497C36.0471 9.12816 38.0488 13.9609 38.0488 19C38.0488 24.0391 36.0471 28.8718 32.4839 32.435C28.9207 35.9982 24.0879 38 19.0488 38C14.0097 38 9.17699 35.9982 5.6138 32.435C2.05061 28.8718 0.0488281 24.0391 0.0488281 19C0.0488281 13.9609 2.05061 9.12816 5.6138 5.56497C9.17699 2.00178 14.0097 0 19.0488 0ZM21.5711 10.241C21.5711 9.61111 21.3209 9.00702 20.8755 8.56162C20.4301 8.11622 19.826 7.866 19.1961 7.866C18.5662 7.866 17.9621 8.11622 17.5167 8.56162C17.0713 9.00702 16.8211 9.61111 16.8211 10.241V16.7722H10.2898C9.65994 16.7722 9.05585 17.0225 8.61045 17.4679C8.16505 17.9133 7.91483 18.5174 7.91483 19.1473C7.91483 19.7771 8.16505 20.3812 8.61045 20.8266C9.05585 21.272 9.65994 21.5223 10.2898 21.5223H16.8211V28.0535C16.8211 28.6834 17.0713 29.2875 17.5167 29.7329C17.9621 30.1783 18.5662 30.4285 19.1961 30.4285C19.826 30.4285 20.4301 30.1783 20.8755 29.7329C21.3209 29.2875 21.5711 28.6834 21.5711 28.0535V21.5223H28.1023C28.7322 21.5223 29.3363 21.272 29.7817 20.8266C30.2271 20.3812 30.4773 19.7771 30.4773 19.1473C30.4773 18.5174 30.2271 17.9133 29.7817 17.4679C29.3363 17.0225 28.7322 16.7722 28.1023 16.7722H21.5711V10.241Z" fill="#EF842D"/>
</g>
<defs>
<clipPath id="clip0_97_507">
<rect width="38" height="38" fill="white" transform="translate(0.0488281)"/>
</clipPath>
</defs>
</svg>
