<svg width="39" height="39" viewBox="0 0 39 39" fill="none" xmlns="http://www.w3.org/2000/svg">
<path d="M24.8278 4.70703L17.3431 6.57827L28.5524 11.6735L36.0373 9.80224L24.8278 4.70703ZM15.9799 7.43947V10.752L27.8136 16.1311V12.8184L15.9799 7.43947ZM37.4004 10.8511L29.1617 12.9107V17.7042C27.5639 18.1034 25.9661 18.5031 24.3683 18.9025V23.6959C22.7704 24.0951 21.1727 24.4948 19.5749 24.8943V29.6877C17.977 30.0869 16.3793 30.4866 14.7815 30.886V34.2899L37.4004 28.6351V10.8511ZM15.2409 11.8971L12.5496 12.57L23.7591 17.6652L26.4505 16.9923L15.2409 11.8971ZM11.1864 13.4312V16.7438L23.0201 22.1228V18.8102L11.1864 13.4312ZM10.4476 17.8889L7.7562 18.5618L18.9657 23.657L21.6571 22.9841L10.4476 17.8889ZM6.39295 19.423V22.7355L18.2268 28.1146V24.8019L6.39295 19.423ZM5.65409 23.8807L2.96286 24.5536L14.1722 29.6488L16.8637 28.9758L5.65409 23.8807ZM1.59961 25.4147V28.7272L13.4334 34.1063V30.7937L1.59961 25.4147Z" fill="#EF842D"/>
</svg>
