<svg width="39" height="39" viewBox="0 0 39 39" fill="none" xmlns="http://www.w3.org/2000/svg">
<g clip-path="url(#clip0_89_120)">
<path d="M7.14492 8.7293C6.78691 8.81309 7.01543 8.79785 6.71836 8.83594C5.44629 9.11016 6.39082 9.35391 7.14492 8.7293ZM29.5166 9.23965C29.608 9.17871 29.9279 8.86641 28.9301 8.56172C28.991 8.87402 28.7244 8.84355 28.7244 9.01875C29.4633 9.68906 29.768 10.8545 30.7125 11.0982C30.8953 10.2604 29.8746 9.84902 29.5166 9.23965ZM6.46699 8.48555C6.58125 9.16348 7.0916 7.76953 7.09922 7.27441C6.90117 7.38867 6.70312 7.50293 6.49746 7.59434C6.97734 7.83809 6.5584 8.09707 6.04043 8.48555C4.98926 9.7957 7.02305 7.46484 6.46699 8.48555ZM19.5 0C8.7293 0 0 8.7293 0 19.5C0 30.2631 8.7293 39 19.5 39C30.2707 39 39 30.2631 39 19.5C39 8.7293 30.2707 0 19.5 0ZM20.018 6.53555L20.1094 6.56602C19.7437 7.03828 22.0137 8.41699 20.3836 8.53125C18.8602 8.96543 21.0234 8.13516 19.8428 8.27988C20.4674 7.41152 19.3477 7.39629 20.018 6.53555ZM10.7707 7.78477C10.2223 7.32773 8.50078 8.40938 9.10254 8.15039C10.5955 7.56387 9.20156 8.21133 9.55195 8.91211C9.23203 9.5748 9.44531 8.25703 8.65312 9.0416C8.08184 9.17109 6.68027 10.466 6.85547 10.0699C6.80977 10.6869 5.1873 11.4182 4.96641 12.4465C4.4332 13.8709 4.83691 12.3932 4.73789 11.8371C3.97617 10.8697 2.58984 13.4748 3.00117 14.5031C3.69434 13.2844 3.64102 14.3736 3.13828 14.9145C3.64863 15.8514 2.67363 17.0701 3.64102 17.7633C4.06758 17.8623 4.9207 16.3313 4.54746 17.9232C4.80645 16.5445 5.26348 18.2508 6.00234 17.8699C6.04805 18.5936 6.49746 18.2584 6.59648 19.1344C7.83047 19.043 8.95781 21.1301 7.4877 21.5262C7.70859 21.4652 8.14277 21.8537 8.64551 21.5566C9.49863 22.2346 11.7457 22.3184 11.8066 23.9941C10.2604 24.733 11.4258 26.7592 10.0852 27.4828C8.54648 27.2543 9.55957 29.3795 8.91211 29.1357C9.17109 30.6668 7.3582 28.9377 8.05898 29.7832C9.34629 30.5754 7.49531 30.4154 8.07422 30.9943C7.42676 30.8572 8.47793 32.1979 8.65312 32.693C9.58242 34.2012 7.85332 32.3578 7.34297 31.8551C6.85547 30.8801 5.70527 29.0139 5.38535 27.4828C5.20254 25.2586 3.48105 23.7656 3.08496 21.5947C2.68887 20.3836 4.17422 18.4412 3.37441 17.7633C2.68125 17.2225 2.96309 15.3715 2.55176 14.3965C3.58008 9.94043 6.84785 6.18516 10.7707 3.96094C10.367 4.25801 13.0787 3.1916 12.7664 3.45059C12.6826 3.64102 14.3508 2.72695 15.3563 2.58984C15.2496 2.60508 12.7436 3.50391 13.4367 3.38203C12.3627 3.90762 13.3301 3.61055 13.8633 3.34395C12.7969 4.12852 11.9742 3.90762 10.7631 4.60078C9.54434 4.9207 9.7957 6.18516 8.92734 6.81738C9.4377 6.90879 10.7174 5.49961 11.4639 5.00449C13.1777 4.17422 10.5955 6.5127 12.2256 5.50723C11.6771 6.01758 11.7914 6.83262 11.4562 7.06113C11.2887 7.01543 12.1189 7.45723 10.7707 7.78477ZM13.4367 4.28086C13.2615 4.51699 13.0178 5.02734 12.873 4.71504C12.675 4.81406 12.5988 5.24063 12.2256 4.89785C12.4465 4.73789 12.675 4.35703 12.2408 4.59316C12.4389 4.37988 14.2061 3.77812 14.107 3.54961C14.4193 3.35156 14.3889 3.25254 14.0309 3.37441C13.848 3.31348 14.465 2.79551 15.2877 2.72695C15.402 2.72695 15.4477 2.80312 15.242 2.78027C14.0004 3.16113 14.5336 3.05449 15.3715 2.78027C15.0516 2.96309 14.8307 3.01641 14.7773 3.1002C15.6152 2.79551 14.7316 3.32109 14.9221 3.28301C14.6859 3.40488 14.9602 3.44297 14.5031 3.61816C14.5869 3.54961 13.7566 4.11328 14.2518 3.9457C13.7719 4.40273 13.5586 4.41035 13.4367 4.28086ZM14.168 5.37012C14.1832 4.63887 15.2344 4.17422 15.1049 4.13613C16.3998 3.52676 14.6555 4.15898 15.6762 3.61055C16.057 3.57246 16.8645 2.35371 17.9842 2.27754C19.2182 1.9043 18.6469 2.30039 19.5609 1.95L19.3781 2.10234C19.2182 2.1252 19.4162 2.40703 18.8373 2.83359C18.7764 3.49629 17.7328 3.1916 18.2508 3.9C17.9156 3.42012 17.4129 3.88477 18.0451 3.93047C17.3672 4.44844 15.7904 4.53984 15.0363 5.40059C14.5488 6.10137 14.0994 5.88047 14.168 5.37012ZM19.5838 7.80762C19.0658 9.05684 18.5631 7.6248 19.4771 7.39629C19.7057 7.51816 19.7971 7.55625 19.5838 7.80762ZM17.6338 5.30918C17.4814 4.74551 17.6033 5.04258 18.5098 4.77598C19.1344 5.22539 17.9537 5.52246 17.6338 5.30918ZM31.817 27.6656C31.101 26.4316 32.6854 25.2891 33.2186 24.2531C33.15 25.4643 32.9977 26.6602 31.817 27.6656ZM34.5135 13.5662C33.7365 13.6271 33.0357 13.81 32.335 13.3682C30.7201 11.601 32.632 15.3639 33.1652 13.8252C35.0848 14.5564 33.1348 17.71 31.9236 17.3824C31.2457 15.9199 30.4078 14.3127 28.9301 13.5967C30.065 14.8535 30.6287 16.3998 31.8475 17.5348C31.9312 19.1191 33.5385 16.9559 33.4395 18.1822C33.5918 20.2922 31.0553 21.5566 31.4971 23.6742C32.4416 25.6014 29.6766 25.9518 29.9889 27.6809C28.8768 28.9225 27.6885 30.5982 25.6928 30.3316C25.6928 29.2805 25.1596 28.3893 25.0377 27.3076C23.9561 25.9365 26.1803 24.4664 24.8016 23.0344C23.2096 22.6764 25.1291 20.4826 23.4914 20.6883C22.5088 19.7057 21.0691 20.6578 19.66 20.6654C17.8928 20.833 16.0723 18.4945 16.8568 16.8416C16.2322 15.1201 18.8373 14.6174 18.9059 13.1016C20.1551 12.058 21.9299 12.1875 23.6209 11.9438C23.499 13.1549 24.7787 13.1625 25.7461 13.5662C26.2869 12.2561 27.9703 13.7795 29.1205 12.9492C29.5166 11.0145 28.0008 12.1799 27.1324 11.5629C26.0813 10.0242 29.3795 10.7707 29.0367 9.96328C27.757 9.95566 28.4807 8.38652 27.5742 9.2625C28.3893 9.40723 27.4295 10.0471 27.4523 9.31582C26.2184 8.95781 27.4066 10.7174 26.782 10.885C25.8299 10.4889 26.2793 11.3344 26.3783 11.4639C25.967 12.3551 25.4643 10.1537 24.2988 10.2146C23.141 9.15586 23.8418 10.6945 24.8473 10.9459C24.634 11.0068 24.9691 11.8828 24.7025 11.5096C23.8723 10.367 22.2955 9.60527 21.3586 11.0068C21.2596 12.317 18.5936 12.6902 19.0201 11.1592C18.3955 9.5748 20.9549 11.1135 20.7188 9.84902C19.0734 8.75977 21.1682 9.11016 21.7242 8.08945C22.9887 8.12754 21.7775 7.05352 22.3717 6.74121C22.3107 7.90664 23.3391 7.68574 24.1541 7.46484C23.9561 6.79453 24.6416 6.81738 24.2227 6.26133C26.1117 5.50723 22.783 6.61172 23.4533 4.95879C22.6383 4.39512 23.1105 6.20039 23.4533 6.39082C23.4762 6.94688 23.0039 7.63242 22.3564 6.46699C21.4119 7.08398 21.5109 5.84238 21.45 5.97188C21.3434 5.49199 22.166 5.46914 22.1736 4.63125C22.1051 4.09805 22.1203 3.81621 22.5012 3.78574C22.5316 3.86191 24.0627 3.88477 24.6035 4.51699C23.1258 4.21992 24.3826 4.76074 25.0453 5.06543C24.3369 4.50938 25.3271 5.06543 24.7482 4.4332C24.9768 4.47891 24.116 3.56484 24.9996 4.36465C24.5197 3.79336 25.9365 3.96094 25.0986 3.53438C26.325 3.87715 25.6014 3.56484 24.8777 3.25254C22.882 2.06426 28.4045 4.85977 26.1498 3.61816C27.5895 3.93047 23.0725 2.50605 25.1291 3.13066C24.3445 2.78789 25.1062 2.97832 25.8146 3.19922C24.5426 2.80312 22.6383 2.06426 22.7145 2.03379C23.1562 2.06426 23.5904 2.16328 24.0094 2.28516C25.3119 2.67363 23.6361 2.19375 23.9941 2.20137C28.473 3.35156 32.3959 6.35273 34.7801 10.2756C35.3361 10.8621 36.852 14.7393 36.0598 13.0178C36.4178 14.3889 36.4711 15.8666 36.6615 17.2682C36.2654 16.8264 35.8236 15.1963 35.4428 14.2898C35.2828 14.6402 35.1 13.7947 34.5135 13.5662Z" fill="#EF842D"/>
</g>
<defs>
<clipPath id="clip0_89_120">
<rect width="39" height="39" fill="white"/>
</clipPath>
</defs>
</svg>
