<svg width="39" height="39" viewBox="0 0 39 39" fill="none" xmlns="http://www.w3.org/2000/svg">
<path d="M7.84333 16.8783C10.9633 23.01 15.99 28.015 22.1217 31.1567L26.8883 26.39C27.4733 25.805 28.34 25.61 29.0983 25.87C31.525 26.6717 34.1467 27.105 36.8333 27.105C38.025 27.105 39 28.08 39 29.2717V36.8333C39 38.025 38.025 39 36.8333 39C16.4883 39 0 22.5117 0 2.16667C0 0.975 0.975 0 2.16667 0H9.75C10.9417 0 11.9167 0.975 11.9167 2.16667C11.9167 4.875 12.35 7.475 13.1517 9.90167C13.39 10.66 13.2167 11.505 12.61 12.1117L7.84333 16.8783Z" fill="#EF842D"/>
</svg>
