<svg width="39" height="39" viewBox="0 0 39 39" fill="none" xmlns="http://www.w3.org/2000/svg">
<path d="M37.6071 36.2143H33.4286V2.78571H34.8214C35.1908 2.78571 35.5451 2.63897 35.8063 2.37776C36.0675 2.11654 36.2143 1.76227 36.2143 1.39286C36.2143 1.02345 36.0675 0.66917 35.8063 0.407958C35.5451 0.146747 35.1908 0 34.8214 0H4.17857C3.80916 0 3.45488 0.146747 3.19367 0.407958C2.93246 0.66917 2.78571 1.02345 2.78571 1.39286C2.78571 1.76227 2.93246 2.11654 3.19367 2.37776C3.45488 2.63897 3.80916 2.78571 4.17857 2.78571H5.57143V36.2143H1.39286C1.02345 36.2143 0.66917 36.361 0.407958 36.6222C0.146747 36.8835 0 37.2377 0 37.6071C0 37.9766 0.146747 38.3308 0.407958 38.592C0.66917 38.8533 1.02345 39 1.39286 39H37.6071C37.9766 39 38.3308 38.8533 38.592 38.592C38.8533 38.3308 39 37.9766 39 37.6071C39 37.2377 38.8533 36.8835 38.592 36.6222C38.3308 36.361 37.9766 36.2143 37.6071 36.2143ZM12.5357 6.96429H16.7143C17.0837 6.96429 17.438 7.11103 17.6992 7.37224C17.9604 7.63346 18.1071 7.98773 18.1071 8.35714C18.1071 8.72655 17.9604 9.08083 17.6992 9.34204C17.438 9.60325 17.0837 9.75 16.7143 9.75H12.5357C12.1663 9.75 11.812 9.60325 11.5508 9.34204C11.2896 9.08083 11.1429 8.72655 11.1429 8.35714C11.1429 7.98773 11.2896 7.63346 11.5508 7.37224C11.812 7.11103 12.1663 6.96429 12.5357 6.96429ZM12.5357 13.9286H16.7143C17.0837 13.9286 17.438 14.0753 17.6992 14.3365C17.9604 14.5977 18.1071 14.952 18.1071 15.3214C18.1071 15.6908 17.9604 16.0451 17.6992 16.3063C17.438 16.5675 17.0837 16.7143 16.7143 16.7143H12.5357C12.1663 16.7143 11.812 16.5675 11.5508 16.3063C11.2896 16.0451 11.1429 15.6908 11.1429 15.3214C11.1429 14.952 11.2896 14.5977 11.5508 14.3365C11.812 14.0753 12.1663 13.9286 12.5357 13.9286ZM11.1429 22.2857C11.1429 21.9163 11.2896 21.562 11.5508 21.3008C11.812 21.0396 12.1663 20.8929 12.5357 20.8929H16.7143C17.0837 20.8929 17.438 21.0396 17.6992 21.3008C17.9604 21.562 18.1071 21.9163 18.1071 22.2857C18.1071 22.6551 17.9604 23.0094 17.6992 23.2706C17.438 23.5318 17.0837 23.6786 16.7143 23.6786H12.5357C12.1663 23.6786 11.812 23.5318 11.5508 23.2706C11.2896 23.0094 11.1429 22.6551 11.1429 22.2857ZM23.6786 36.2143H15.3214V29.25H23.6786V36.2143ZM26.4643 23.6786H22.2857C21.9163 23.6786 21.562 23.5318 21.3008 23.2706C21.0396 23.0094 20.8929 22.6551 20.8929 22.2857C20.8929 21.9163 21.0396 21.562 21.3008 21.3008C21.562 21.0396 21.9163 20.8929 22.2857 20.8929H26.4643C26.8337 20.8929 27.188 21.0396 27.4492 21.3008C27.7104 21.562 27.8571 21.9163 27.8571 22.2857C27.8571 22.6551 27.7104 23.0094 27.4492 23.2706C27.188 23.5318 26.8337 23.6786 26.4643 23.6786ZM26.4643 16.7143H22.2857C21.9163 16.7143 21.562 16.5675 21.3008 16.3063C21.0396 16.0451 20.8929 15.6908 20.8929 15.3214C20.8929 14.952 21.0396 14.5977 21.3008 14.3365C21.562 14.0753 21.9163 13.9286 22.2857 13.9286H26.4643C26.8337 13.9286 27.188 14.0753 27.4492 14.3365C27.7104 14.5977 27.8571 14.952 27.8571 15.3214C27.8571 15.6908 27.7104 16.0451 27.4492 16.3063C27.188 16.5675 26.8337 16.7143 26.4643 16.7143ZM26.4643 9.75H22.2857C21.9163 9.75 21.562 9.60325 21.3008 9.34204C21.0396 9.08083 20.8929 8.72655 20.8929 8.35714C20.8929 7.98773 21.0396 7.63346 21.3008 7.37224C21.562 7.11103 21.9163 6.96429 22.2857 6.96429H26.4643C26.8337 6.96429 27.188 7.11103 27.4492 7.37224C27.7104 7.63346 27.8571 7.98773 27.8571 8.35714C27.8571 8.72655 27.7104 9.08083 27.4492 9.34204C27.188 9.60325 26.8337 9.75 26.4643 9.75Z" fill="#EF842D"/>
</svg>
