<svg width="38" height="38" viewBox="0 0 38 38" fill="none" xmlns="http://www.w3.org/2000/svg">
<path d="M0 19C0 29.4929 8.50707 38 19 38C29.4929 38 38 29.4929 38 19C38 8.50707 29.4929 0 19 0C8.50707 0 0 8.50707 0 19ZM19.4248 10.6546C19.5611 10.7898 19.6694 10.9505 19.7436 11.1276C19.8177 11.3046 19.8563 11.4945 19.8571 11.6865C19.8578 11.8785 19.8208 12.0687 19.748 12.2463C19.6752 12.424 19.5682 12.5855 19.433 12.7218L14.6537 17.5385H26.8558C27.2434 17.5385 27.6151 17.6924 27.8892 17.9665C28.1633 18.2406 28.3173 18.6124 28.3173 19C28.3173 19.3876 28.1633 19.7594 27.8892 20.0335C27.6151 20.3076 27.2434 20.4615 26.8558 20.4615H14.6537L19.433 25.2782C19.5682 25.4146 19.6752 25.5763 19.7479 25.754C19.8206 25.9318 19.8576 26.1221 19.8567 26.3142C19.8559 26.5062 19.8172 26.6962 19.7429 26.8733C19.6687 27.0504 19.5602 27.2111 19.4238 27.3463C19.2875 27.4815 19.1258 27.5885 18.948 27.6612C18.7703 27.7339 18.58 27.7709 18.3879 27.77C18.1959 27.7692 18.0059 27.7305 17.8288 27.6563C17.6517 27.582 17.491 27.4736 17.3558 27.3372L10.1038 20.0295C9.83214 19.7557 9.6797 19.3857 9.6797 19C9.6797 18.6143 9.83214 18.2443 10.1038 17.9705L17.3558 10.6628C17.491 10.5263 17.6518 10.4177 17.829 10.3434C18.0062 10.269 18.1964 10.2304 18.3886 10.2296C18.5807 10.2288 18.7712 10.266 18.949 10.3389C19.1268 10.4118 19.2885 10.5191 19.4248 10.6546Z" fill="#EF842D"/>
</svg>
